<?xml version="1.0" standalone="no"?>
<!DOCTYPE svg PUBLIC "-//W3C//DTD SVG 20010904//EN"
 "http://www.w3.org/TR/2001/REC-SVG-20010904/DTD/svg10.dtd">
<svg version="1.0" xmlns="http://www.w3.org/2000/svg"
 width="128.000000pt" height="128.000000pt" viewBox="0 0 128.000000 128.000000"
 preserveAspectRatio="xMidYMid meet">
<metadata>
Created by potrace 1.11, written by Peter Selinger 2001-2013
</metadata>
<g transform="translate(0.000000,128.000000) scale(0.100000,-0.100000)"
fill="#000000" stroke="none">
<path d="M592 1184 c-19 -13 -299 -376 -381 -493 -21 -30 -24 -49 -28 -140 -2
-58 -5 -119 -6 -136 -2 -34 -8 -32 128 -40 64 -3 151 -13 185 -20 167 -35 271
-87 413 -208 l79 -67 30 17 c48 29 111 93 152 157 71 112 70 129 -20 186 -35
22 -67 48 -72 57 -5 10 -10 51 -10 91 -1 81 -10 194 -17 232 -3 14 -8 45 -11
70 -3 25 -12 77 -20 115 -8 39 -14 73 -14 76 0 8 -68 42 -90 45 -8 2 -31 7
-50 13 -100 30 -216 61 -230 61 -8 0 -26 -7 -38 -16z"/>
</g>
</svg>
